PathFileType	3	(X/Y/Z)	RCH0000002 BBF 02.c3d
DataRate	CameraRate	NumFrames	NumMarkers	Units	OrigDataRate	OrigDataStartFrame	OrigNumFrames
100.0	100.0	17	23	mm	100.0	35	30
Frame#	Time	T2			T10			MAN			LASI			RASI			LPSI			RPSI			LPAT			LANK			LMED			LHEE			LTOE			RPAT			RANK			RMED			RHEE			RTOE			RTHI			LTHI			RTIB			LTIB			LKNE			RKNE			
		X1	Y1	Z1	X2	Y2	Z2	X3	Y3	Z3	X4	Y4	Z4	X5	Y5	Z5	X6	Y6	Z6	X7	Y7	Z7	X8	Y8	Z8	X9	Y9	Z9	X10	Y10	Z10	X11	Y11	Z11	X12	Y12	Z12	X13	Y13	Z13	X14	Y14	Z14	X15	Y15	Z15	X16	Y16	Z16	X17	Y17	Z17	X18	Y18	Z18	X19	Y19	Z19	X20	Y20	Z20	X21	Y21	Z21	X22	Y22	Z22	X23	Y23	Z23	

35	0.340	574.77148	69.41694	1078.36072	573.55853	79.06898	884.65759	700.19531	61.11752	1034.19800	680.82806	139.02264	724.24152	649.07507	-35.37186	738.23230	568.46008	110.95427	790.19696	555.89709	41.40234	796.87537	649.89844	117.52515	452.85049	524.93903	194.10304	157.61346	537.90216	124.13025	170.15399	492.75186	147.85033	187.08958	578.01892	165.97246	151.44272	607.53375	11.56670	451.27307	482.29523	-17.88187	159.00813	503.70807	49.04991	170.50850	454.04855	29.48562	190.20035	538.07135	-5.40015	152.30962	568.39001	-101.62200	536.27002	626.18500	242.40900	550.05499	481.70099	-80.04710	319.24799	559.26599	248.47000	316.50299	605.88629	182.99727	421.62677	540.86017	-30.12474	429.45090	
36	0.350	573.84552	69.53136	1078.34082	573.06067	79.12985	884.62726	699.40662	61.29695	1034.49402	680.54810	139.22354	724.38721	648.88318	-35.16043	738.30365	568.13055	111.06681	790.19824	555.62054	41.50227	796.85425	649.90112	117.64650	452.91498	524.92657	194.03845	157.61739	537.95966	124.06839	170.17436	492.78867	147.76569	187.09015	578.02808	165.94383	151.45027	607.46863	11.67163	451.30286	482.27524	-17.84128	158.98289	503.69702	49.09718	170.47174	454.03180	29.55442	190.16307	538.05377	-5.37162	152.29395	568.32300	-101.48900	536.31500	625.94000	242.53000	550.08398	481.64801	-79.97020	319.23801	559.16302	248.47200	316.50101	605.82233	183.03224	421.65918	540.80682	-30.02239	429.44867	
37	0.360	572.94592	69.65484	1078.32703	572.55334	79.19958	884.60352	698.63611	61.48239	1034.77234	680.24719	139.43076	724.52856	648.67194	-34.94444	738.37494	567.78076	111.18653	790.19794	555.32361	41.60976	796.83282	649.88379	117.77148	452.97876	524.91003	193.97704	157.61523	538.00952	124.01016	170.18999	492.81815	147.68526	187.08319	578.03308	165.91708	151.45605	607.38672	11.78280	451.33295	482.25342	-17.80002	158.95552	503.68262	49.14482	170.43214	454.01053	29.62259	190.12122	538.03424	-5.34208	152.27766	568.24103	-101.35300	536.35699	625.67999	242.65601	550.11102	481.58600	-79.89080	319.22601	559.05103	248.47900	316.49301	605.74072	183.07390	421.68799	540.73981	-29.91728	429.44540	
38	0.370	572.07263	69.78738	1078.31934	572.03644	79.27817	884.58643	697.88385	61.67385	1035.03308	679.92554	139.64429	724.66565	648.44135	-34.72389	738.44623	567.41058	111.31342	790.19611	555.00635	41.72482	796.81110	649.84631	117.90009	453.04181	524.88947	193.91879	157.60701	538.05170	123.95556	170.20090	492.84036	147.60905	187.06870	578.03400	165.89218	151.46005	607.28809	11.90023	451.36340	482.22974	-17.75811	158.92603	503.66489	49.19284	170.38968	453.98471	29.69013	190.07478	538.01270	-5.31153	152.26077	568.14502	-101.21500	536.39801	625.40399	242.78500	550.13702	481.51599	-79.81060	319.21100	558.92902	248.49001	316.48001	605.64142	183.12219	421.71329	540.65918	-29.80940	429.44107	
39	0.380	571.22577	69.92899	1078.31775	571.51001	79.36560	884.57593	697.14978	61.87132	1035.27625	679.58301	139.86414	724.79846	648.19141	-34.49879	738.51746	567.02014	111.44748	790.19269	554.66870	41.84743	796.78900	649.78882	118.03233	453.10416	524.86481	193.86375	157.59274	538.08612	123.90459	170.20708	492.85529	147.53705	187.04666	578.03070	165.86916	151.46228	607.17267	12.02390	451.39417	482.20419	-17.71553	158.89441	503.64377	49.24123	170.34438	453.95438	29.75703	190.02376	537.98920	-5.27996	152.24329	568.03497	-101.07300	536.43701	625.11401	242.91701	550.16101	481.43701	-79.72800	319.19400	558.79797	248.50600	316.46100	605.52454	183.17711	421.73502	540.56488	-29.69877	429.43570	
40	0.390	570.40527	70.07967	1078.32227	570.97400	79.46189	884.57208	696.43396	62.07480	1035.50171	679.21960	140.09032	724.92694	647.92212	-34.26912	738.58862	566.60931	111.58872	790.18762	554.31073	41.97761	796.76660	649.71124	118.16818	453.16580	524.83612	193.81189	157.57239	538.11292	123.85725	170.20851	492.86295	147.46924	187.01711	578.02325	165.84798	151.46272	607.04047	12.15383	451.42526	482.17682	-17.67229	158.86066	503.61929	49.28999	170.29622	453.91949	29.82329	189.96817	537.96375	-5.24739	152.22519	567.91199	-100.92800	536.47601	624.80701	243.05400	550.18201	481.35101	-79.64420	319.17401	558.65601	248.52699	316.43600	605.39001	183.23862	421.75320	540.45697	-29.58535	429.42926	
41	0.400	569.61115	70.23940	1078.33289	570.42853	79.56703	884.57489	695.73639	62.28429	1035.70959	678.83539	140.32281	725.05121	647.63348	-34.03490	738.65979	566.17816	111.73713	790.18103	553.93237	42.11535	796.74384	649.61359	118.30768	453.22675	524.80334	193.76321	157.54597	538.13202	123.81354	170.20523	492.86328	147.40565	186.98003	578.01166	165.82867	151.46140	606.89154	12.29000	451.45670	482.14758	-17.62839	158.82478	503.59146	49.33913	170.24521	453.88013	29.88891	189.90800	537.93634	-5.21380	152.20648	567.77399	-100.78000	536.51300	624.48499	243.19501	550.20203	481.25601	-79.55860	319.15100	558.50500	248.55200	316.40500	605.23779	183.30679	421.76779	540.33533	-29.46917	429.42178	
42	0.410	568.84338	70.40820	1078.34961	569.87347	79.68103	884.58429	695.05695	62.49980	1035.89990	678.43030	140.56163	725.17114	647.32550	-33.79612	738.73096	565.72675	111.89272	790.17285	553.53369	42.26064	796.72076	649.49585	118.45080	453.28696	524.76654	193.71773	157.51350	538.14343	123.77345	170.19722	492.85635	147.34628	186.93541	577.99591	165.81122	151.45830	606.72583	12.43242	451.48843	482.11649	-17.58383	158.78677	503.56027	49.38865	170.19135	453.83621	29.95391	189.84326	537.90698	-5.17920	152.18716	567.62402	-100.62900	536.54797	624.15002	243.33900	550.21997	481.15302	-79.47100	319.12701	558.34497	248.58200	316.36899	605.06793	183.38158	421.77884	540.20020	-29.35023	429.41324	
43	0.420	568.10205	70.58606	1078.37244	569.30890	79.80388	884.60034	694.39581	62.72132	1036.07263	678.00439	140.80676	725.28674	646.99817	-33.55279	738.80200	565.25494	112.05547	790.16315	553.11462	42.41349	796.69739	649.35803	118.59754	453.34647	524.72571	193.67542	157.47496	538.14709	123.73700	170.18448	492.84210	147.29111	186.88326	577.97607	165.79564	151.45341	606.54333	12.58109	451.52051	482.08356	-17.53860	158.74666	503.52573	49.43853	170.13463	453.78775	30.01826	189.77394	537.87567	-5.14359	152.16724	567.45801	-100.47400	536.58099	623.79797	243.48700	550.23700	481.04099	-79.38210	319.09900	558.17603	248.61600	316.32700	604.88037	183.46291	421.78632	540.05133	-29.22853	429.40363	
44	0.430	567.38702	70.77298	1078.40149	568.73474	79.93559	884.62305	693.75287	62.94885	1036.22778	677.55762	141.05823	725.39813	646.65149	-33.30490	738.87311	564.76282	112.22540	790.15179	552.67523	42.57391	796.67365	649.20020	118.74792	453.40527	524.68073	193.63631	157.43034	538.14313	123.70418	170.16699	492.82059	147.24014	186.82358	577.95203	165.78191	151.44675	606.34406	12.73601	451.55292	482.04877	-17.49272	158.70441	503.48782	49.48879	170.07506	453.73480	30.08198	189.70003	537.84235	-5.10697	152.14670	567.28003	-100.31700	536.61401	623.42999	243.64000	550.25098	480.92200	-79.29130	319.06799	557.99597	248.65601	316.27899	604.67529	183.55086	421.79019	539.88885	-29.10405	429.39297	
45	0.440	566.69843	70.96897	1078.43652	568.15106	80.07614	884.65240	693.12811	63.18240	1036.36523	677.08997	141.31599	725.50519	646.28546	-33.05245	738.94409	564.25037	112.40251	790.13892	552.21545	42.74189	796.64960	649.02228	118.90192	453.46338	524.63177	193.60037	157.37967	538.13147	123.67499	170.14479	492.79178	147.19339	186.75638	577.92383	165.77005	151.43831	606.12805	12.89718	451.58566	482.01215	-17.44617	158.66002	503.44656	49.53943	170.01265	453.67731	30.14506	189.62155	537.80707	-5.06933	152.12556	567.08600	-100.15700	536.64398	623.04797	243.79601	550.26398	480.79300	-79.19870	319.03601	557.80701	248.69901	316.22501	604.45251	183.64539	421.79047	539.71277	-28.97683	429.38126	
46	0.450	566.03613	71.17402	1078.47778	567.55786	80.22556	884.68835	692.52161	63.42196	1036.48511	676.60150	141.58009	725.60797	645.90009	-32.79544	739.01508	563.71759	112.58679	790.12439	551.73535	42.91743	796.62524	648.82422	119.05955	453.52075	524.57874	193.56761	157.32294	538.11212	123.64942	170.11786	492.75571	147.15085	186.68164	577.89154	165.76006	151.42810	605.89526	13.06460	451.61874	481.97366	-17.39896	158.61351	503.40195	49.59044	169.94737	453.61526	30.20751	189.53850	537.76984	-5.03068	152.10382	566.88000	-99.99360	536.67401	622.65002	243.95700	550.27502	480.65799	-79.10470	319.00101	557.60699	248.74800	316.16599	604.21204	183.74651	421.78720	539.52307	-28.84680	429.36847	
47	0.460	565.40027	71.38814	1078.52515	566.95514	80.38382	884.73090	691.93329	63.66753	1036.58728	676.09222	141.85052	725.70648	645.49530	-32.53387	739.08606	563.16449	112.77824	790.10834	551.23486	43.10052	796.60052	648.60620	119.22080	453.57742	524.52161	193.53806	157.26013	538.08508	123.62749	170.08620	492.71231	147.11252	186.59937	577.85504	165.75192	151.41611	605.64569	13.23827	451.65213	481.93332	-17.35109	158.56488	503.35397	49.64182	169.87926	453.54874	30.26933	189.45085	537.73065	-4.99102	152.08147	566.65900	-99.82710	536.70203	622.23798	244.12100	550.28497	480.51300	-79.00900	318.96201	557.39899	248.80200	316.10101	603.95404	183.85416	421.78027	539.31970	-28.71401	429.35464	
48	0.470	564.79077	71.61131	1078.57861	566.34290	80.55094	884.78015	691.36322	63.91912	1036.67200	675.56207	142.12726	725.80072	645.07123	-32.26775	739.15698	562.59100	112.97688	790.09070	550.71399	43.29118	796.57550	648.36804	119.38569	453.63336	524.46045	193.51167	157.19127	538.05035	123.60919	170.04979	492.66165	147.07840	186.50957	577.81439	165.74564	151.40234	605.37933	13.41818	451.68585	481.89111	-17.30256	158.51413	503.30261	49.69357	169.80827	453.47766	30.33050	189.35864	537.68951	-4.95035	152.05850	566.42499	-99.65770	536.72803	621.80902	244.28900	550.29199	480.35999	-78.91150	318.92200	557.17999	248.85899	316.03000	603.67828	183.96838	421.76981	539.10272	-28.57844	429.33975	
49	0.480	564.20764	71.84355	1078.63818	565.72107	80.72691	884.83600	690.81140	64.17672	1036.73901	675.01105	142.41032	725.89062	644.62781	-31.99707	739.22784	561.99725	113.18267	790.07147	550.17285	43.48940	796.55011	648.10980	119.55421	453.68860	524.39520	193.48848	157.11633	538.00793	123.59451	170.00867	492.60367	147.04849	186.41225	577.76965	165.74123	151.38680	605.09625	13.60435	451.71991	481.84708	-17.25336	158.46124	503.24792	49.74570	169.73445	453.40207	30.39104	189.26184	537.64636	-4.90867	152.03494	566.17700	-99.48510	536.75299	621.36603	244.46100	550.29901	480.20001	-78.81230	318.87799	556.95203	248.92200	315.95300	603.38489	184.08914	421.75571	538.87219	-28.44010	429.32382	
50	0.490	563.65088	72.08485	1078.70386	565.08972	80.91174	884.89844	690.27777	64.44033	1036.78845	674.43921	142.69971	725.97632	644.16498	-31.72184	739.29871	561.38318	113.39565	790.05066	549.61127	43.69518	796.52441	647.83154	119.72635	453.74313	524.32593	193.46846	157.03534	537.95782	123.58347	169.96281	492.53842	147.02278	186.30739	577.72070	165.73868	151.36948	604.79639	13.79676	451.75427	481.80121	-17.20351	158.40623	503.18988	49.79821	169.65776	453.32196	30.45095	189.16048	537.60126	-4.86597	152.01077	565.91400	-99.30940	536.77600	620.90698	244.63800	550.30200	480.03101	-78.71160	318.83301	556.71503	248.98900	315.87100	603.07397	184.21645	421.73801	538.62799	-28.29898	429.30679	
51	0.500	563.12048	72.33522	1078.77563	564.44885	81.10542	884.96759	689.76233	64.70995	1036.82019	673.84650	142.99541	726.05762	643.68286	-31.44205	739.36951	560.74872	113.61580	790.02826	549.02936	43.90852	796.49841	647.53314	119.90211	453.79697	524.25262	193.45164	156.94827	537.90002	123.57606	169.91223	492.46588	147.00128	186.19499	577.66766	165.73799	151.35039	604.47974	13.99543	451.78900	481.75348	-17.15299	158.34911	503.12845	49.85109	169.57823	453.23730	30.51022	189.05452	537.55420	-4.82226	151.98598	565.63898	-99.13070	536.79901	620.43298	244.81900	550.30499	479.85300	-78.60910	318.78500	556.46802	249.06000	315.78299	602.74542	184.35025	421.71667	538.37018	-28.15509	429.28876	
